<?xml version="1.0" encoding="utf-8"?>
<!-- Generator: Adobe Illustrator 23.0.0, SVG Export Plug-In . SVG Version: 6.00 Build 0)  -->
<!DOCTYPE svg PUBLIC "-//W3C//DTD SVG 1.1//EN" "http://www.w3.org/Graphics/SVG/1.1/DTD/svg11.dtd" [
	<!ENTITY ns_extend "http://ns.adobe.com/Extensibility/1.0/">
	<!ENTITY ns_ai "http://ns.adobe.com/AdobeIllustrator/10.0/">
	<!ENTITY ns_graphs "http://ns.adobe.com/Graphs/1.0/">
	<!ENTITY ns_vars "http://ns.adobe.com/Variables/1.0/">
	<!ENTITY ns_imrep "http://ns.adobe.com/ImageReplacement/1.0/">
	<!ENTITY ns_sfw "http://ns.adobe.com/SaveForWeb/1.0/">
	<!ENTITY ns_custom "http://ns.adobe.com/GenericCustomNamespace/1.0/">
	<!ENTITY ns_adobe_xpath "http://ns.adobe.com/XPath/1.0/">
]>
<svg version="1.1" id="Laag_1" xmlns:x="&ns_extend;" xmlns:i="&ns_ai;" xmlns:graph="&ns_graphs;"
	 xmlns="http://www.w3.org/2000/svg" xmlns:xlink="http://www.w3.org/1999/xlink" x="0px" y="0px" viewBox="0 0 244.9 79.9"
	 style="enable-background:new 0 0 244.9 79.9;" xml:space="preserve">
<style type="text/css">
	.st0{enable-background:new    ;}
</style>
<metadata>
	<sfw  xmlns="&ns_sfw;">
		<slices></slices>
		<sliceSourceBounds  bottomLeftOrigin="true" height="79.8" width="245" x="0" y="0.1"></sliceSourceBounds>
	</sfw>
</metadata>
<g id="_x34_4-18Plus_movie">
	<path d="M25.3,53.5V31.8h-5v-5.6h11.9v27.2C32.2,53.4,25.3,53.5,25.3,53.5z M58.2,33.3c0,2.4-1.3,4.5-3.4,5.6
		c3,1.2,4.9,3.8,4.9,6.9c0,4.9-4.4,8-11.2,8s-11.2-3.1-11.2-7.9c0-3.1,2-5.8,5.2-7c-2.3-1.3-3.8-3.5-3.8-5.8c0-4.4,3.8-7.1,9.7-7.1
		C54.4,26,58.2,28.9,58.2,33.3z M43.8,45.3c0,2.3,1.6,3.6,4.6,3.6s4.7-1.2,4.7-3.6c0-2.3-1.7-3.5-4.7-3.5
		C45.5,41.7,43.8,43,43.8,45.3z M44.5,33.7c0,1.9,1.4,3,3.9,3s3.9-1.1,3.9-3c0-2-1.4-3.1-3.9-3.1S44.5,31.7,44.5,33.7z"/>
	<path d="M71.1,29.4c1.1,3.4,1.7,6.9,1.7,10.6c0,18.2-14.8,32.9-32.9,32.9S7,58.1,7,39.9C7,21.8,21.8,7,39.9,7
		c3.6,0,7.2,0.6,10.6,1.7V1.4C47.1,0.5,43.5,0,39.9,0C17.9,0,0,17.9,0,39.9s17.9,39.9,39.9,39.9s39.9-17.9,39.9-39.9
		c0-3.6-0.5-7.1-1.4-10.6C78.4,29.4,71.1,29.4,71.1,29.4z"/>
	<path d="M69.1,10.7V3.1h-5.5v7.6H56v5.5h7.6v7.7h5.5v-7.7h7.7v-5.5L69.1,10.7z"/>
</g>
<g class="st0">
	<path d="M103.5,12c1.1,0,2,0.2,2.8,0.5s1.4,0.8,1.9,1.4c0.5,0.6,0.9,1.3,1.1,2.1c0.2,0.8,0.4,1.7,0.4,2.6c0,2.2-0.6,3.9-1.8,5
		c-1.2,1.1-2.9,1.7-5.2,1.7h-2v8.2h-5.6V12H103.5z M101.8,21.3c0.7,0,1.2-0.2,1.6-0.6s0.6-1.1,0.6-2c0-1.7-0.7-2.6-2.2-2.6h-1.1v5.2
		H101.8z"/>
	<path d="M116.7,12v21.4h-5.4V12H116.7z"/>
	<path d="M126.6,32.6c0-0.3-0.1-0.6-0.1-1h-0.1c-0.3,0.7-0.8,1.3-1.4,1.6c-0.7,0.4-1.4,0.5-2.2,0.5c-0.8,0-1.5-0.1-2.1-0.3
		s-1-0.5-1.4-0.9s-0.6-0.9-0.8-1.5c-0.2-0.6-0.2-1.2-0.2-1.9c0-0.8,0.1-1.4,0.2-2s0.4-1,0.7-1.5c0.3-0.4,0.8-0.8,1.4-1
		s1.3-0.5,2.2-0.7l2.1-0.5c0.6-0.1,1-0.3,1.2-0.6c0.2-0.3,0.4-0.7,0.4-1.2c0-1-0.5-1.5-1.4-1.5c-0.5,0-0.9,0.1-1.1,0.4
		s-0.4,0.9-0.4,1.7h-4.7c0-1.2,0.2-2.1,0.6-2.8c0.4-0.7,0.9-1.3,1.6-1.6c0.6-0.4,1.3-0.6,2-0.8c0.7-0.1,1.4-0.2,2-0.2
		c0.9,0,1.8,0.1,2.6,0.2s1.5,0.4,2,0.8c0.6,0.4,1,0.9,1.3,1.6s0.5,1.5,0.5,2.6v7.9c0,0.8,0,1.4,0.1,2s0.2,1.1,0.4,1.5h-5.2
		C126.7,33.1,126.7,32.9,126.6,32.6z M126.1,29.6c0.3-0.4,0.4-1.1,0.4-2v-2h-0.1c-0.2,0.2-0.4,0.4-0.7,0.4c-0.3,0-0.7,0.2-1.1,0.3
		c-0.4,0.2-0.7,0.5-0.9,0.8s-0.2,0.8-0.2,1.3s0.1,1,0.4,1.3c0.2,0.3,0.6,0.5,1,0.5C125.4,30.2,125.9,30,126.1,29.6z"/>
	<path d="M135,34.8c0.2,0,0.4,0,0.6,0c0.3,0,0.6-0.1,0.9-0.2c0.2-0.1,0.4-0.2,0.6-0.3c0.1-0.1,0.2-0.3,0.3-0.4
		c0.1-0.1,0.1-0.2,0.1-0.3s0-0.3-0.1-0.5s-0.1-0.4-0.2-0.6l-4.3-15.3h5.5l1.7,11h0.1l1.6-11h5.4l-4.4,16.7c-0.2,0.9-0.5,1.7-0.8,2.3
		s-0.7,1.1-1.1,1.5c-0.4,0.4-0.9,0.6-1.5,0.8c-0.6,0.1-1.2,0.2-1.9,0.2c-0.6,0-1.1,0-1.6,0s-1-0.1-1.4-0.1v-3.8
		C134.6,34.8,134.8,34.8,135,34.8z"/>
</g>
<g class="st0">
	<path d="M104.1,42c1.1,0,2,0.1,2.7,0.4s1.4,0.7,1.8,1.2c0.5,0.5,0.8,1.1,1,1.8s0.3,1.5,0.3,2.3c0,1.4-0.3,2.6-0.9,3.5
		s-1.5,1.4-2.8,1.6v0.1c1.3,0.1,2.3,0.6,2.8,1.4c0.5,0.8,0.8,2,0.8,3.4v1.8c0,0.3,0,0.6,0,0.9c0,0.3,0,0.6,0,0.9
		c0,0.3,0,0.5,0.1,0.7s0.1,0.4,0.1,0.5c0.1,0.1,0.2,0.2,0.2,0.3c0.1,0.1,0.2,0.2,0.4,0.3v0.3h-5.9c-0.1-0.3-0.2-0.6-0.3-1
		c-0.1-0.4-0.1-0.8-0.1-1.1c0-0.4-0.1-0.7-0.1-1.1c0-0.3,0-0.6,0-0.9v-1.4c0-0.6,0-1.1-0.1-1.5s-0.2-0.7-0.3-0.9
		c-0.1-0.2-0.3-0.4-0.6-0.5c-0.2-0.1-0.5-0.1-0.9-0.1h-1.5v8.6h-5.6V42H104.1z M102,51.1c0.8,0,1.4-0.2,1.8-0.7s0.6-1.1,0.6-1.8
		c0-0.9-0.2-1.5-0.6-1.9s-1-0.6-1.8-0.6h-1.1v5H102z"/>
	<path d="M117.2,58.4c0,0.9,0.1,1.5,0.5,1.8c0.3,0.3,0.6,0.4,1,0.4c0.5,0,0.9-0.2,1.1-0.6c0.3-0.4,0.4-1.1,0.4-2.2h4.9
		c0,2-0.6,3.5-1.5,4.5c-1,1-2.6,1.5-4.8,1.5c-1.3,0-2.4-0.1-3.3-0.4c-0.9-0.3-1.6-0.8-2.1-1.4s-0.9-1.5-1.2-2.6s-0.3-2.4-0.3-3.9
		c0-1.6,0.1-2.9,0.4-4s0.7-2,1.2-2.6c0.6-0.7,1.3-1.2,2.1-1.5c0.9-0.3,1.9-0.5,3.1-0.5c1.1,0,2,0.1,2.8,0.4s1.5,0.7,2,1.3
		s1,1.4,1.2,2.4c0.3,1,0.4,2.2,0.4,3.7v1.6h-8v2.1H117.2z M119.9,50.7c-0.2-0.4-0.6-0.6-1.2-0.6s-0.9,0.2-1.2,0.6
		c-0.2,0.4-0.3,1-0.3,1.9v0.7h3v-0.7C120.2,51.7,120.1,51.1,119.9,50.7z"/>
	<path d="M131,59.3c0.1,0.3,0.2,0.5,0.3,0.7c0.3,0.4,0.6,0.6,1.1,0.6c0.4,0,0.8-0.1,1.1-0.4s0.5-0.6,0.5-1c0-0.5-0.2-0.8-0.6-1.1
		c-0.4-0.3-0.9-0.5-1.5-0.7s-1.2-0.4-1.9-0.6c-0.7-0.2-1.3-0.5-1.9-0.9s-1.1-0.9-1.5-1.5s-0.6-1.5-0.6-2.5c0-0.7,0.1-1.4,0.4-2
		s0.7-1.1,1.2-1.6s1.2-0.8,2-1.1s1.8-0.4,2.9-0.4c4.1,0,6.1,1.7,6.1,5.1H134c0-0.7-0.1-1.2-0.4-1.4s-0.6-0.4-1.1-0.4
		c-0.4,0-0.7,0.1-1,0.3s-0.4,0.5-0.4,0.9c0,0.5,0.2,0.8,0.6,1c0.4,0.2,0.9,0.4,1.5,0.6c0.6,0.2,1.2,0.4,1.9,0.6
		c0.7,0.2,1.3,0.5,1.9,0.9s1.1,0.9,1.5,1.5s0.6,1.5,0.6,2.5c0,0.8-0.1,1.5-0.4,2.2c-0.3,0.7-0.7,1.2-1.3,1.7s-1.2,0.8-2,1.1
		c-0.8,0.2-1.7,0.4-2.7,0.4c-2.3,0-3.9-0.5-4.9-1.3c-1-0.9-1.5-2.2-1.5-4h4.7C130.9,58.7,130.9,59,131,59.3z"/>
	<path d="M145.9,47.2v2.2h0.1c0.6-1.8,1.8-2.6,3.7-2.6c1.8,0,3.1,0.7,3.8,2.2s1.1,3.7,1.1,6.7c0,1.6-0.1,2.9-0.4,3.9
		c-0.2,1-0.6,1.9-1,2.5s-0.9,1.1-1.6,1.3s-1.3,0.4-2.1,0.4s-1.4-0.2-2.1-0.5s-1.1-0.9-1.3-1.7H146v7h-5.4V47.2H145.9z M146.2,57.5
		c0,0.6,0.1,1,0.2,1.4c0.1,0.3,0.3,0.6,0.5,0.7c0.2,0.1,0.5,0.2,0.8,0.2s0.6-0.1,0.8-0.2c0.2-0.1,0.4-0.4,0.5-0.7s0.2-0.8,0.2-1.4
		c0-0.6,0.1-1.3,0.1-2.2s0-1.6-0.1-2.2c0-0.6-0.1-1-0.2-1.4c-0.1-0.4-0.3-0.6-0.5-0.7c-0.2-0.1-0.5-0.2-0.8-0.2s-0.6,0.1-0.8,0.2
		c-0.2,0.1-0.4,0.4-0.5,0.7s-0.2,0.8-0.2,1.4c0,0.6-0.1,1.3-0.1,2.2S146.1,56.9,146.2,57.5z"/>
	<path d="M169.3,58.4c-0.1,1-0.5,1.9-0.9,2.7c-0.5,0.8-1.2,1.4-2.1,1.9c-0.9,0.5-2.1,0.7-3.6,0.7c-1.6,0-2.8-0.2-3.8-0.6
		c-0.9-0.4-1.6-1-2.1-1.8s-0.8-1.7-0.9-2.7c-0.1-1-0.2-2.1-0.2-3.3c0-1.1,0.1-2.1,0.2-3.1s0.5-1.9,0.9-2.7c0.5-0.8,1.2-1.4,2.1-1.9
		c0.9-0.5,2.1-0.7,3.6-0.7c1.6,0,2.8,0.2,3.8,0.7c0.9,0.4,1.6,1.1,2.1,1.8s0.8,1.7,0.9,2.7s0.2,2.1,0.2,3.3
		C169.6,56.4,169.5,57.4,169.3,58.4z M161.2,57.8c0,0.6,0.1,1.2,0.2,1.5c0.1,0.4,0.3,0.6,0.5,0.8c0.2,0.1,0.4,0.2,0.7,0.2
		s0.5-0.1,0.8-0.2c0.2-0.1,0.4-0.4,0.5-0.8c0.1-0.4,0.2-0.9,0.2-1.5c0-0.7,0.1-1.5,0.1-2.5s0-1.9-0.1-2.5s-0.1-1.2-0.2-1.6
		c-0.1-0.4-0.3-0.6-0.5-0.8s-0.5-0.2-0.8-0.2s-0.5,0.1-0.7,0.2c-0.2,0.1-0.3,0.4-0.5,0.8c-0.1,0.4-0.2,0.9-0.2,1.6
		c0,0.7-0.1,1.5-0.1,2.5C161.2,56.3,161.2,57.2,161.2,57.8z"/>
	<path d="M176.5,47.2v2h0.1c0.7-1.6,2-2.4,3.9-2.4c0.6,0,1.2,0.1,1.7,0.2c0.5,0.1,1,0.4,1.3,0.7s0.7,0.8,0.9,1.3
		c0.2,0.6,0.3,1.3,0.3,2.2v12.2h-5.4V52.7c0-0.7-0.1-1.2-0.3-1.5s-0.5-0.5-1-0.5s-0.8,0.1-1,0.5c-0.2,0.3-0.3,0.8-0.3,1.5v10.7h-5.4
		V47.2H176.5z"/>
	<path d="M191.1,59.3c0.1,0.3,0.2,0.5,0.3,0.7c0.3,0.4,0.6,0.6,1.1,0.6c0.4,0,0.8-0.1,1.1-0.4c0.3-0.2,0.5-0.6,0.5-1
		c0-0.5-0.2-0.8-0.6-1.1c-0.4-0.3-0.9-0.5-1.5-0.7s-1.2-0.4-1.9-0.6c-0.7-0.2-1.3-0.5-1.9-0.9s-1.1-0.9-1.5-1.5s-0.6-1.5-0.6-2.5
		c0-0.7,0.1-1.4,0.4-2c0.3-0.6,0.7-1.1,1.2-1.6s1.2-0.8,2-1.1s1.8-0.4,2.9-0.4c4.1,0,6.1,1.7,6.1,5.1H194c0-0.7-0.1-1.2-0.4-1.4
		c-0.3-0.2-0.6-0.4-1.1-0.4c-0.4,0-0.7,0.1-1,0.3s-0.4,0.5-0.4,0.9c0,0.5,0.2,0.8,0.6,1c0.4,0.2,0.9,0.4,1.5,0.6
		c0.6,0.2,1.2,0.4,1.9,0.6c0.7,0.2,1.3,0.5,1.9,0.9s1.1,0.9,1.5,1.5s0.6,1.5,0.6,2.5c0,0.8-0.2,1.5-0.5,2.2s-0.7,1.2-1.3,1.7
		c-0.5,0.5-1.2,0.8-2,1.1c-0.8,0.2-1.7,0.4-2.7,0.4c-2.3,0-3.9-0.5-4.9-1.3c-1-0.9-1.5-2.2-1.5-4h4.7C191,58.7,191,59,191.1,59.3z"
		/>
	<path d="M206.2,42v4h-5.4v-4H206.2z M206.2,47.2v16.2h-5.4V47.2H206.2z"/>
	<path d="M214,42v7h0.1c0.3-0.8,0.7-1.4,1.3-1.8s1.3-0.5,2.1-0.5s1.5,0.1,2.1,0.4c0.6,0.3,1.1,0.7,1.6,1.4c0.4,0.6,0.7,1.5,1,2.5
		c0.2,1,0.3,2.4,0.3,3.9c0,3-0.4,5.2-1.1,6.7c-0.7,1.4-2,2.1-3.8,2.1c-1,0-1.7-0.2-2.3-0.6c-0.6-0.4-1-1.1-1.4-2h-0.1v2.2h-5.2V42
		H214z M214,57.5c0,0.6,0.1,1,0.2,1.4c0.1,0.3,0.3,0.6,0.5,0.7c0.2,0.1,0.5,0.2,0.8,0.2s0.6-0.1,0.8-0.2c0.2-0.1,0.4-0.4,0.5-0.7
		s0.2-0.8,0.2-1.4c0-0.6,0.1-1.3,0.1-2.2s0-1.6-0.1-2.2s-0.1-1-0.2-1.4c-0.1-0.4-0.3-0.6-0.5-0.7c-0.2-0.1-0.5-0.2-0.8-0.2
		s-0.6,0.1-0.8,0.2c-0.2,0.1-0.4,0.4-0.5,0.7s-0.2,0.8-0.2,1.4s-0.1,1.3-0.1,2.2C214,56.2,214,56.9,214,57.5z"/>
	<path d="M229.6,42v21.4h-5.4V42H229.6z"/>
	<path d="M232.8,64.8c0.2,0,0.4,0,0.6,0c0.3,0,0.6-0.1,0.9-0.2c0.2-0.1,0.4-0.2,0.6-0.3c0.1-0.1,0.2-0.3,0.3-0.4s0.1-0.2,0.1-0.3
		s0-0.3-0.1-0.5s-0.1-0.4-0.2-0.6l-4.3-15.3h5.5l1.7,11h0.1l1.6-11h5.4l-4.4,16.7c-0.2,0.9-0.5,1.7-0.8,2.3s-0.7,1.1-1.1,1.5
		c-0.4,0.4-0.9,0.6-1.5,0.8c-0.6,0.1-1.2,0.2-1.9,0.2c-0.6,0-1.1,0-1.6,0s-1-0.1-1.4-0.1v-3.8C232.4,64.8,232.6,64.8,232.8,64.8z"/>
</g>
</svg>
