<?xml version="1.0" encoding="utf-8"?>
<!-- Generator: Adobe Illustrator 23.0.0, SVG Export Plug-In . SVG Version: 6.00 Build 0)  -->
<!DOCTYPE svg PUBLIC "-//W3C//DTD SVG 1.1//EN" "http://www.w3.org/Graphics/SVG/1.1/DTD/svg11.dtd" [
	<!ENTITY ns_extend "http://ns.adobe.com/Extensibility/1.0/">
	<!ENTITY ns_ai "http://ns.adobe.com/AdobeIllustrator/10.0/">
	<!ENTITY ns_graphs "http://ns.adobe.com/Graphs/1.0/">
	<!ENTITY ns_vars "http://ns.adobe.com/Variables/1.0/">
	<!ENTITY ns_imrep "http://ns.adobe.com/ImageReplacement/1.0/">
	<!ENTITY ns_sfw "http://ns.adobe.com/SaveForWeb/1.0/">
	<!ENTITY ns_custom "http://ns.adobe.com/GenericCustomNamespace/1.0/">
	<!ENTITY ns_adobe_xpath "http://ns.adobe.com/XPath/1.0/">
]>
<svg version="1.1" id="Layer_1" xmlns:x="&ns_extend;" xmlns:i="&ns_ai;" xmlns:graph="&ns_graphs;"
	 xmlns="http://www.w3.org/2000/svg" xmlns:xlink="http://www.w3.org/1999/xlink" x="0px" y="0px" viewBox="0 0 268 35"
	 style="enable-background:new 0 0 268 35;" xml:space="preserve">
<metadata>
	<sfw  xmlns="&ns_sfw;">
		<slices></slices>
		<sliceSourceBounds  bottomLeftOrigin="true" height="34.737" width="267.816" x="0.132" y="0.105"></sliceSourceBounds>
	</sfw>
</metadata>
<title>gambleaware</title>
<desc>Created with Sketch.</desc>
<g id="Page-1">
	<g id="gambleaware">
		<path id="Shape" d="M0.132,11.421h7.732c3.445,0,4.681,0.105,5.707,0.5c1.92,0.921,3.051,2.737,3.051,4.895
			c0,2.026-0.605,3.053-2.656,4.079c2.13,0.711,3.551,2.737,3.366,4.974c0,3.368-2.656,5.605-6.496,5.605H0.158v-3.263h1.525V14.684
			H0.158L0.132,11.421z M5.839,14.684v4.895H9.81c1.42,0.105,2.735-0.921,2.84-2.342c0-0.105,0-0.211,0-0.211
			c0-1.316-1.315-2.342-3.156-2.342H5.839z M5.839,22.737v5.5h4.261c1.631,0.105,3.051-1.026,3.156-2.658c0,0,0,0,0-0.105
			c0-1.737-1.42-2.842-3.551-2.842L5.839,22.737z"/>
		<path d="M34.19,26.5c-0.71,3.368-3.445,5.395-7.127,5.395c-4.261,0-7.417-3.368-7.417-8.026c0-4.684,3.156-8.026,7.417-8.026
			c2.341,0,4.576,1.132,5.891,3.158c1.026,1.737,1.631,3.658,1.525,5.711H23.486c0.395,3.974,2.946,4.184,3.656,4.184
			c1.42,0.105,2.735-0.921,3.156-2.237L34.19,26.5z M30.324,22.026c0-1.737-1.42-3.053-3.051-3.053h-0.105
			c-1.736,0-3.156,1.316-3.445,2.947L30.324,22.026z"/>
		<path d="M46.92,21.5h7.022v9.974h-2.236v-3.158c-0.395,0.711-0.921,1.316-1.525,1.921c-1.315,1.132-2.946,1.737-4.576,1.737
			c-4.681,0-8.337-4.579-8.337-10.474s3.656-10.579,8.232-10.579c2.551-0.105,4.787,1.316,5.996,3.447v-3.158h2.13v6.421h-2.236
			c-0.21-0.921-0.605-1.737-1.131-2.447c-1.026-1.316-2.656-2.132-4.261-2.237c-2.446,0-6.102,2.132-6.102,8.342
			c0,4.895,2.656,8.447,6.102,8.447c2.735-0.105,4.971-2.132,5.497-4.789c0.105-0.5,0.105-1.132,0.105-1.632h-4.787L46.92,21.5z"/>
		<path d="M71.011,31.579h-4.366v-2.737c-1.026,1.921-3.051,3.053-5.181,3.053c-2.551,0.211-4.787-1.842-4.971-4.368
			c0-0.105,0-0.211,0-0.316c0-2.947,2.551-4.368,8.653-4.974l1.42-0.105v-1.526c0-1.737-1.315-2.842-3.445-2.842
			c-2.13,0-3.261,0.711-3.656,2.737h-2.393c0.21-1.211,0.815-2.342,1.736-3.158c1.131-0.921,2.656-1.316,4.077-1.316
			c3.156,0,5.786,1.421,5.786,5.289v8.421h2.13L71.011,31.579z M66.645,23.632l-1.42,0.211c-4.681,0.605-6.207,1.421-6.207,3.368
			c0.105,1.737,1.525,2.947,3.156,2.947c2.236-0.105,4.182-1.737,4.471-3.974V23.632z"/>
		<path d="M77.428,19.053c0.71-1.026,2.025-3.158,4.892-3.158c2.025,0,3.156,1.026,3.551,3.158c0.395-0.711,0.815-1.316,1.42-1.921
			c0.921-0.816,2.025-1.316,3.261-1.316c2.341,0,3.656,1.526,3.656,4.184v9.658h2.13V31.5h-4.261V20.789
			c0-2.132-0.71-3.158-2.236-3.158c-2.656,0-4.077,3.158-4.077,4.263v7.737h2.236v1.842H83.53v-11c0-1.921-0.71-2.737-2.236-2.737
			c-2.341,0-4.077,2.947-4.077,4.368v7.632h2.236v1.842h-6.601v-1.842h2.236V17.921h-2.236v-1.842h4.471L77.428,19.053z"/>
		<path d="M98.679,10.526h4.261v8.842C103.544,18.237,105.28,16,107.91,16c3.445,0,6.102,3.553,6.102,8.026
			c0,4.184-2.84,7.737-6.102,7.737c-2.735,0-4.077-1.842-4.971-3.053v2.868h-4.366v-1.842h2.13V12.342h-2.025V10.526z
			 M102.939,25.079c0,2.553,1.92,4.579,4.366,4.789c2.656,0,4.261-2.342,4.261-6.105s-1.736-6-4.261-6
			c-2.236,0-4.471,2.447-4.471,4.684L102.939,25.079z"/>
		<polygon points="115.327,10.526 119.693,10.526 119.693,29.737 121.718,29.737 121.718,31.579 115.222,31.579 115.222,29.737 
			117.457,29.737 117.457,12.237 115.327,12.237 		"/>
		<path d="M136.683,27.316c-0.21,0.921-0.605,1.632-1.21,2.342c-1.21,1.421-2.946,2.237-4.892,2.237
			c-4.182,0-7.127-3.263-7.127-7.947c0-4.474,2.946-7.947,6.707-7.947s6.812,2.947,6.812,8.342H125.9
			c0.21,2.237,0.71,3.553,1.736,4.579c0.815,0.711,1.841,1.132,2.84,1.132c1.736,0,2.84-0.816,3.656-2.658L136.683,27.316z
			 M134.447,22.632c0-1.421-0.5-2.737-1.525-3.868c-0.71-0.605-1.631-1.026-2.551-0.921c-1.92,0.105-3.551,1.421-4.077,3.263
			c-0.105,0.5-0.316,1.026-0.316,1.526H134.447z"/>
		<path d="M146.361,11.421h4.866l5.602,16.895h1.525v3.263h-4.576l-1.315-4.368h-7.127l-1.315,4.368h-4.681v-3.263h1.525
			L146.361,11.421z M148.781,15.184l-2.656,8.947h5.286L148.781,15.184z"/>
		<polygon points="158.144,16.211 164.245,16.211 164.245,19.158 162.72,19.158 164.85,28.211 167.401,16.211 171.373,16.211 
			173.924,28.026 175.949,19.184 174.424,19.184 174.424,16.237 180.525,16.237 180.525,19.184 179.21,19.184 175.949,31.474 
			171.872,31.474 169.321,20.895 166.875,31.474 162.799,31.474 159.432,19.158 158.117,19.158 		"/>
		<path d="M194.964,28.632h1.315v2.947h-4.787v-1.842c-1.131,1.421-2.84,2.132-4.681,2.132c-3.051,0-5.392-2.026-5.392-4.789
			c0-4.474,5.076-4.974,9.968-5.395c0-2.342-0.815-3.053-2.735-3.053s-2.656,0.921-2.735,2.342v0.105l-3.656-0.105
			c0.21-3.053,2.656-4.974,6.312-4.974c4.261,0,6.496,1.921,6.496,5.395L194.964,28.632z M191.308,24.342
			c-3.551,0.316-5.891,0.605-5.891,2.737c0,1.211,1.026,2.026,2.551,2.026c1.841,0,3.366-1.421,3.445-3.263v-0.053v-1.421h-0.105
			V24.342z"/>
		<path d="M203.485,18.658c1.026-1.921,2.13-2.737,3.866-2.737c0.605,0,1.131,0.105,1.736,0.211v3.553
			c-0.605-0.105-1.21-0.211-1.841-0.211c-1.92-0.105-3.551,1.316-3.656,3.158v5.895h1.841v2.947h-7.127v-2.947h1.525v-9.368h-1.525
			v-2.947h5.181V18.658z"/>
		<path d="M224.447,26.5c-0.71,3.368-3.445,5.395-7.127,5.395c-4.261,0-7.417-3.368-7.417-8.026c0-4.684,3.156-8.026,7.417-8.026
			c2.341,0,4.576,1.132,5.891,3.158c1.026,1.737,1.631,3.658,1.525,5.711h-10.994c0.395,3.974,2.946,4.184,3.656,4.184
			c1.42,0.105,2.735-0.921,3.156-2.237L224.447,26.5z M220.475,22.026c0-1.737-1.42-3.053-3.051-3.053h-0.105
			c-1.736,0-3.156,1.316-3.445,2.947L220.475,22.026z"/>
		<path d="M263.476,2.368c0.5,0,0.868,0.132,1.157,0.368c0.263,0.237,0.421,0.579,0.421,0.974c0,0.316-0.079,0.579-0.21,0.816
			S264.476,4.921,264.16,5v0.026c0.158,0.026,0.263,0.079,0.368,0.132c0.105,0.079,0.158,0.158,0.21,0.237
			c0.053,0.105,0.105,0.211,0.132,0.316s0.053,0.237,0.053,0.368s0.026,0.263,0.026,0.395s0.026,0.263,0.026,0.395
			c0.026,0.132,0.053,0.237,0.079,0.368c0.026,0.105,0.079,0.211,0.158,0.289h-0.763c-0.053-0.053-0.079-0.132-0.105-0.211
			c-0.026-0.079-0.026-0.184-0.026-0.316c0-0.105,0-0.237-0.026-0.368c0-0.132-0.026-0.263-0.053-0.395
			c-0.026-0.132-0.053-0.237-0.079-0.368c-0.026-0.105-0.079-0.211-0.132-0.289c-0.053-0.079-0.132-0.158-0.237-0.211
			c-0.105-0.053-0.237-0.079-0.395-0.079h-1.683v2.184h-0.684V2.368H263.476z M263.634,4.711c0.132-0.026,0.263-0.079,0.368-0.132
			c0.105-0.079,0.184-0.158,0.263-0.289c0.053-0.105,0.105-0.263,0.105-0.447c0-0.263-0.079-0.474-0.21-0.632
			c-0.132-0.158-0.368-0.237-0.71-0.237h-1.71v1.789h1.42C263.345,4.737,263.476,4.737,263.634,4.711z"/>
		<path d="M262.977,10.105c-2.735,0-4.971-2.237-4.971-4.974s2.236-4.974,4.971-4.974s4.971,2.237,4.971,4.974
			C267.974,7.868,265.738,10.105,262.977,10.105z M262.977,0.947c-2.288,0-4.182,1.868-4.182,4.184s1.867,4.184,4.182,4.184
			c2.288,0,4.182-1.868,4.182-4.184S265.291,0.947,262.977,0.947z"/>
		<g id="Group" transform="translate(226.445535, 20.000000)">
			<polygon points="0.132,9.553 2.025,9.553 2.025,11.421 0.132,11.421 			"/>
			<path d="M3.735,5.895c0-3.342,2.051-5.658,5.05-5.658c2.919,0,5.05,2.395,5.05,5.658c0,3.421-2.078,5.763-5.076,5.763
				S3.735,9.342,3.735,5.895z M8.705,10.289c2.078,0,3.34-1.684,3.34-4.447c0-2.605-1.315-4.263-3.34-4.263
				c-1.973,0-3.209,1.658-3.209,4.342C5.497,8.684,6.707,10.289,8.705,10.289z"/>
			<path d="M18.121,2.947c0.526-1.158,0.815-1.5,1.315-1.974c0.579-0.5,1.289-0.763,1.999-0.763c0.263,0,0.631,0.053,1.184,0.132
				v1.605c-0.552-0.105-0.868-0.132-1.157-0.132c-2.972,0-3.34,3.079-3.34,3.263v5.079h1.867v1.289h-5.023v-1.289h1.578V1.737
				h-1.631V0.421h3.209V2.947z"/>
			<path d="M31.218,8.737c-0.999,1.421-2.104,1.868-3.314,1.868c-2.63,0-4.445-2.158-4.445-5.289c0-2.974,1.788-5.079,4.261-5.079
				c2.025,0,2.919,1.289,3.498,2.132V0.395h3.103v1.316h-1.525v9.026c0,2.658-1.683,4.158-4.681,4.158
				c-1.815,0-3.366-0.789-4.103-2.079c-0.132-0.263-0.263-0.526-0.447-1.079h1.788c0.658,1.316,1.42,1.816,2.893,1.816
				c1.867,0,2.972-0.974,2.972-2.553V8.737z M31.218,4.474c0-1.211-1.473-2.921-3.156-2.921c-1.788,0-2.893,1.474-2.893,3.868
				c0,2.421,1.131,3.895,2.998,3.895c1.604,0,3.051-1.579,3.051-2.868V4.474z"/>
		</g>
	</g>
</g>
</svg>
