<?xml version="1.0" encoding="utf-8"?>
<!-- Generator: Adobe Illustrator 23.0.0, SVG Export Plug-In . SVG Version: 6.00 Build 0)  -->
<!DOCTYPE svg PUBLIC "-//W3C//DTD SVG 1.1//EN" "http://www.w3.org/Graphics/SVG/1.1/DTD/svg11.dtd" [
	<!ENTITY ns_extend "http://ns.adobe.com/Extensibility/1.0/">
	<!ENTITY ns_ai "http://ns.adobe.com/AdobeIllustrator/10.0/">
	<!ENTITY ns_graphs "http://ns.adobe.com/Graphs/1.0/">
	<!ENTITY ns_vars "http://ns.adobe.com/Variables/1.0/">
	<!ENTITY ns_imrep "http://ns.adobe.com/ImageReplacement/1.0/">
	<!ENTITY ns_sfw "http://ns.adobe.com/SaveForWeb/1.0/">
	<!ENTITY ns_custom "http://ns.adobe.com/GenericCustomNamespace/1.0/">
	<!ENTITY ns_adobe_xpath "http://ns.adobe.com/XPath/1.0/">
]>
<svg version="1.1" id="Layer_1" xmlns:x="&ns_extend;" xmlns:i="&ns_ai;" xmlns:graph="&ns_graphs;"
	 xmlns="http://www.w3.org/2000/svg" xmlns:xlink="http://www.w3.org/1999/xlink" x="0px" y="0px" viewBox="0 0 121.5 45"
	 style="enable-background:new 0 0 121.5 45;" xml:space="preserve">
<metadata>
	<sfw  xmlns="&ns_sfw;">
		<slices></slices>
		<sliceSourceBounds  bottomLeftOrigin="true" height="45" width="121.7" x="-0.1" y="0"></sliceSourceBounds>
	</sfw>
</metadata>
<g>
	<path d="M15.1,19c0,0.6-0.1,2.4-1.6,3.6c-1.6,1.3-4.3,1.6-6.3,1.6c-0.8,0-1.5,0-2.3-0.1c-1.5-0.2-3.3-0.6-4.3-2
		c-0.6-0.9-0.6-1.9-0.7-3h5c0,0.2-0.1,0.9,0.4,1.3s1.1,0.6,2,0.6c0.1,0,1.3,0,1.9-0.5c0.8-0.6,0.7-1.7,0.7-1.9c0-0.6,0-1.2,0-1.7
		c-0.2,0.4-0.3,0.4-0.5,0.6c-0.8,0.7-2.1,0.8-3.1,0.8c-1.5,0-2.7-0.3-3.9-1.2c-1-0.8-2.3-2.4-2.3-5.5C0,11,0.1,8.3,1.8,6.5
		c1.2-1.3,3-1.8,4.8-1.8c0.4,0,2,0,3.1,0.9c0.2,0.2,0.4,0.3,0.7,0.8V5.1h4.8v13.2C15.2,18.5,15.2,18.7,15.1,19 M8.6,8.7
		c-0.2-0.1-0.5-0.2-1-0.2c-0.4,0-0.7,0.1-1,0.2c-0.8,0.4-1.3,1.3-1.3,3c0,1.2,0.3,1.9,0.6,2.3c0.2,0.2,0.4,0.4,0.7,0.5
		c0.1,0.1,0.5,0.2,0.9,0.2c0.2,0,0.6,0,1.1-0.2c1.1-0.5,1.2-1.9,1.2-2.9C9.7,10.6,9.6,9.3,8.6,8.7"/>
	<path d="M25.8,19v-1.1c-0.2,0.2-0.5,0.4-1,0.6c-0.6,0.3-1.9,0.8-3.6,0.8c-0.4,0-1.3,0-2.2-0.3c-1.8-0.7-2.8-2.3-2.8-4.1
		c0-0.8,0.2-2.4,1.9-3.6c1.2-0.8,2.6-1,4-1.2c0.8-0.1,1.6-0.2,2.4-0.4c0.3-0.1,0.7-0.2,1.1-0.3c0-0.1,0-0.4-0.1-0.6
		c-0.2-0.6-0.6-1-1.8-1c-0.4,0-0.7,0.1-0.8,0.1c-0.9,0.2-0.9,0.9-1,1.2l-5.2,0.1c0.1-0.3,0.1-0.6,0.2-0.8C17,7.9,17.3,6.9,18.4,6
		s2.8-1.5,5.8-1.5c2.2,0,5.1,0.3,6.2,2.6c0.3,0.6,0.4,1.2,0.4,2.5v7.6c0,1,0.1,1.2,0.5,1.7L25.8,19L25.8,19z M23.4,13.2
		c-0.6,0.1-1.4,0.3-1.9,0.9c-0.1,0.1-0.2,0.3-0.2,0.6c0,0.4,0.4,1.1,1.4,1.1c0.5,0,0.9-0.2,1.3-0.4c1.6-0.8,1.5-2.2,1.5-2.9
		C24.8,12.8,24.1,13,23.4,13.2"/>
	<path d="M51.4,19v-7.3c0-0.5,0.2-2.4-1.9-2.4c-0.4,0-1.6,0.1-1.9,1.3c-0.1,0.3-0.1,0.6-0.1,0.9V19H42v-7.5c0-0.3,0-0.5-0.1-0.9
		c-0.3-1.2-1.4-1.3-1.9-1.3c-0.4,0-1.5,0.1-1.9,1.3C38,10.8,38,11,38,11.5V19h-5.6V5.1h5.4v2c0.3-0.6,0.5-0.8,0.8-1
		c0.6-0.5,1.7-1.3,3.6-1.3c0.5,0,2.8,0,4.1,1.5c0.2,0.2,0.4,0.5,0.7,1.1c0.2-0.6,0.5-0.9,0.7-1c0.6-0.7,1.8-1.6,4.1-1.5
		c0.4,0,1,0,1.8,0.2c0.7,0.2,2.4,0.8,3.1,2.8C57,8.6,57,9.3,57,10.2V19H51.4L51.4,19z"/>
	<path d="M70.6,18.5c-0.9,0.6-2,0.8-3.1,0.8c-1.4,0-2.4-0.5-2.9-0.8c-0.2-0.2-0.4-0.4-0.6-0.6v1h-5.4V0h5.5v6
		c0.2-0.2,0.4-0.4,0.7-0.6c0.8-0.5,1.8-0.8,2.8-0.8c1.7,0,3.2,0.6,4.3,1.9c0.8,0.9,1.7,2.4,1.7,5.2C73.8,12.5,73.7,16.6,70.6,18.5
		 M67.7,9.4c-0.5-0.7-1.2-0.8-1.5-0.8C66,8.6,65.5,8.7,65,9c-0.9,0.7-1,1.9-1,3c0,1,0.1,2.3,0.9,2.9c0.2,0.1,0.6,0.4,1.2,0.4
		c0.2,0,0.9-0.1,1.4-0.6s0.8-1.3,0.8-2.7C68.3,11.1,68.2,10.1,67.7,9.4"/>
	<rect x="74.8" y="0" width="5.6" height="19"/>
	<path d="M82,0h5.5v3.7H82V0z M82,5.1h5.5V19H82V5.1z"/>
	<path d="M98.5,19v-7.6c0-0.3,0-0.6-0.1-0.9c-0.1-0.5-0.5-1.2-1.8-1.2c-2,0-2,1.7-2,2.3V19h-5.5V5.1h5.2V7c0.4-0.5,0.4-0.6,0.7-0.8
		c1-1,2.5-1.4,3.9-1.4c0.5,0,2.2,0,3.6,1.2c0.7,0.6,1.2,1.5,1.4,2.4c0.1,0.5,0.2,0.9,0.2,1.9V19H98.5L98.5,19z"/>
	<path d="M120.4,19c0,0.6-0.1,2.4-1.6,3.6c-1.6,1.3-4.3,1.6-6.3,1.6c-0.8,0-1.5,0-2.3-0.1c-1.5-0.2-3.3-0.6-4.3-2
		c-0.6-0.9-0.6-1.9-0.7-3h5c0,0.2-0.1,0.9,0.4,1.3c0.3,0.2,0.9,0.5,1.7,0.5c0.1,0,1.3,0,1.9-0.5c0.8-0.6,0.7-1.7,0.7-1.9
		c0-0.6,0-1.2,0-1.7c-0.2,0.4-0.3,0.4-0.5,0.6c-0.8,0.7-2.1,0.8-3.1,0.8c-1.5,0-2.7-0.3-3.9-1.2c-1-0.8-2.3-2.4-2.3-5.5
		c0-0.7,0.1-3.3,1.8-5.2c1.2-1.3,3.1-1.8,4.8-1.8c0.4,0,2,0,3.1,0.9c0.2,0.2,0.4,0.3,0.7,0.8V4.9h4.8v13.2
		C120.4,18.5,120.4,18.7,120.4,19 M113.8,8.7c-0.2-0.1-0.5-0.2-1-0.2c-0.3,0-0.7,0.1-1,0.2c-0.8,0.4-1.3,1.3-1.3,3
		c0,1.2,0.3,1.9,0.6,2.3c0.2,0.2,0.4,0.4,0.7,0.5c0.1,0.1,0.5,0.2,0.9,0.2c0.2,0,0.6,0,1-0.2c1.1-0.5,1.2-1.9,1.2-2.9
		C115,10.6,114.9,9.3,113.8,8.7"/>
	<path d="M28.3,40.1c-2.9,0-4-1.1-4.4-2.5c-0.1-0.5-0.2-1-0.2-1.5l0.1-6.8h-1.9v-3h1.9l0.1-4.4h5.6v4.4h2.4v3h-2.4l-0.1,5.4
		c0,0.6,0.1,1.5,1.5,1.5c0.3,0,0.5,0,1-0.1v3.8C31.3,39.9,29.8,40.1,28.3,40.1"/>
	<path d="M54.1,34c0,0,0,0.6,0.1,1.1c0.2,0.5,0.7,1.6,2.2,1.5c0.9,0,1.3-0.3,1.6-0.5c0.6-0.5,0.8-1.1,0.9-1.3l4.5,1.9
		c-0.1,0.2-0.3,0.5-0.7,0.9c-1,1.1-2.1,1.7-2.6,2c-0.7,0.3-2.1,0.9-4.1,0.9c-1.2,0-2.3-0.2-3.3-0.6c-2.9-1.2-4.4-4-4.4-7
		c0-2.9,1.3-4.7,2.1-5.4c2-1.9,4.8-2,5.5-2c0.9,0,3.8,0.1,5.8,2.3c0.7,0.7,1.2,1.6,1.5,2.6c0.4,1.2,0.4,2.4,0.4,3.7
		C63.8,34,54.1,34,54.1,34z M58.1,30.2c-0.4-1.2-1.4-1.3-1.8-1.3c-0.4,0-0.7,0.1-0.9,0.2c-1,0.5-1.2,1.6-1.2,1.9h4
		C58.2,30.9,58.2,30.6,58.1,30.2"/>
	<path d="M73.8,30.3c-0.4,0-2.8-0.2-3.5,1.7c-0.2,0.5-0.2,0.8-0.2,1.3v6.6h-5.5V26H70v1.2c0.3-0.2,0.5-0.4,0.8-0.6
		c1.2-0.9,2.4-0.9,3.9-0.9v4.7C74.4,30.4,74.1,30.3,73.8,30.3"/>
	<path d="M84.3,39.9v-1.1c-0.2,0.2-0.5,0.4-1,0.6c-0.6,0.3-1.9,0.8-3.6,0.8c-0.4,0-1.3,0-2.2-0.4c-1.8-0.7-2.8-2.3-2.8-4.1
		c0-0.8,0.2-2.4,1.9-3.6c1.2-0.8,2.6-1,4-1.2c0.8-0.1,1.6-0.2,2.4-0.4c0.4-0.1,0.7-0.2,1.1-0.3c0-0.1,0-0.4-0.1-0.6
		c-0.2-0.6-0.6-1-1.8-1c-0.4,0-0.7,0.1-0.8,0.1c-0.9,0.2-0.9,0.9-1,1.2L75.2,30c0.1-0.3,0.1-0.6,0.2-0.8c0.1-0.5,0.4-1.5,1.5-2.4
		s2.8-1.5,5.8-1.5c2.2,0,5.1,0.3,6.2,2.6c0.3,0.6,0.4,1.2,0.4,2.5V38c0,1,0.1,1.2,0.5,1.7h-5.5V39.9z M81.9,34.1
		c-0.6,0.1-1.4,0.3-1.9,0.9c-0.1,0.1-0.2,0.3-0.2,0.6c0,0.4,0.4,1.1,1.4,1.1c0.5,0,0.9-0.2,1.3-0.4c1.6-0.8,1.5-2.2,1.5-2.9
		C83.3,33.7,82.6,33.9,81.9,34.1"/>
	<path d="M99.9,40.3c-0.4,0-1.9,0-3-0.8c-0.2-0.1-0.3-0.2-0.6-0.5v6h-5.4V26h5.4v1.1c0.3-0.3,0.4-0.4,0.5-0.5
		c0.5-0.4,1.6-0.9,3.1-0.9c4.4,0,6.1,3.6,6.1,7.4C106,37,104.2,40.3,99.9,40.3 M100,30.4c-0.5-0.6-1.2-0.8-1.5-0.8
		c-0.2,0-0.6,0-1.1,0.3c-1.1,0.6-1.2,2-1.2,3.1c0,1.1,0.1,2.5,1.2,3.1c0.4,0.2,0.8,0.2,1,0.2s0.6,0,1.1-0.3c1-0.6,1.1-2,1.1-3
		C100.6,32.2,100.5,31.1,100,30.4"/>
	<path d="M116.4,40.7c-0.4,1.2-0.9,2.5-2,3.4s-2.2,0.9-3.6,0.9c-0.5,0-0.9,0-1.4,0l-1.5-0.2v-4c0.5,0,1,0.1,1.6,0.1
		c0.8,0,1.2-0.2,1.2-0.7c0-0.2-0.2-0.8-0.4-1.4L105.9,26h5.8l2,9.1c0,0,2.1-8.9,2.1-9.1h5.8L116.4,40.7z"/>
	<path d="M47.3,29c-0.2-1.2-0.8-1.9-1.1-2.2c-1-1-2.5-1.4-3.9-1.4c-2,0-3.3,0.8-3.8,1.3c-0.2,0.2-0.3,0.3-0.6,0.7v-6.5h-5.5v19h5.5
		V30h4.9v9.9h4.7v-9.1C47.5,30.2,47.5,29.7,47.3,29"/>
</g>
</svg>
