<?xml version="1.0" encoding="utf-8"?>
<!-- Generator: Adobe Illustrator 23.0.0, SVG Export Plug-In . SVG Version: 6.00 Build 0)  -->
<!DOCTYPE svg PUBLIC "-//W3C//DTD SVG 1.1//EN" "http://www.w3.org/Graphics/SVG/1.1/DTD/svg11.dtd" [
	<!ENTITY ns_extend "http://ns.adobe.com/Extensibility/1.0/">
	<!ENTITY ns_ai "http://ns.adobe.com/AdobeIllustrator/10.0/">
	<!ENTITY ns_graphs "http://ns.adobe.com/Graphs/1.0/">
	<!ENTITY ns_vars "http://ns.adobe.com/Variables/1.0/">
	<!ENTITY ns_imrep "http://ns.adobe.com/ImageReplacement/1.0/">
	<!ENTITY ns_sfw "http://ns.adobe.com/SaveForWeb/1.0/">
	<!ENTITY ns_custom "http://ns.adobe.com/GenericCustomNamespace/1.0/">
	<!ENTITY ns_adobe_xpath "http://ns.adobe.com/XPath/1.0/">
]>
<svg version="1.1" id="Layer_1" xmlns:x="&ns_extend;" xmlns:i="&ns_ai;" xmlns:graph="&ns_graphs;"
	 xmlns="http://www.w3.org/2000/svg" xmlns:xlink="http://www.w3.org/1999/xlink" x="0px" y="0px" viewBox="0 0 1014 292.5"
	 style="enable-background:new 0 0 1014 292.5;" xml:space="preserve">
<metadata>
	<sfw  xmlns="&ns_sfw;">
		<slices></slices>
		<sliceSourceBounds  bottomLeftOrigin="true" height="292.4" width="1014" x="0" y="0.1"></sliceSourceBounds>
	</sfw>
</metadata>
<g>
	<g id="Layer_1-2">
		<path d="M382.7,111.3c0.7,2.5-0.2,4-2.2,4.7l-19.4,5.8c-2.3,0.7-3.6,0-4.3-2.3c-3-9.9-9.5-15.3-21.4-15.3
			c-18.3,0-24.4,10.8-24.4,25.3v33.4c0,14.6,6.1,25.3,24.4,25.3c15.1,0,23-7,23-22.3v-4.3h-20.1c-1.6,0-2.7-0.9-2.7-2.9v-18.5
			c-0.2-1.4,0.9-2.7,2.3-2.9c0.1,0,0.3,0,0.4,0h43.9c1.8,0,2.9,0.9,2.9,2.7v27.7c0,26.4-19.4,46.4-49.6,46.4
			c-35.8,0-52.5-21.2-52.5-50.3v-35.2c0-29.1,16.7-50.3,52.5-50.3C364.3,78.2,377.5,94.8,382.7,111.3L382.7,111.3z M481.1,144.4
			v64.9c0.1,1.4-1,2.6-2.4,2.7c-0.1,0-0.2,0-0.3,0h-19.8c-1.4,0.2-2.7-0.9-2.9-2.3c0-0.1,0-0.3,0-0.4v-10.6
			c-5.7,9.6-16.1,15.5-27.3,15.3c-18.7,0-30.7-12.1-30.7-30.6c0-18,11.3-28.8,39-30.7c6-0.5,12-0.6,18-0.2v-7.2
			c0-9.7-5-13.5-13.7-13.5c-8.8,0-11.3,3.6-13.7,9.2c-0.9,2.1-1.6,2.5-3.6,2l-19.8-5c-2-0.5-2.2-1.6-1.8-3.1
			c2.7-14.2,16.2-24.6,39.9-24.6C467.1,110.2,481.1,122.1,481.1,144.4z M454.7,178.4V169c-5.3-0.2-10.6,0-15.8,0.5
			c-10.1,1.3-15.5,4.3-15.5,12c0,7,4.7,10.8,12.4,10.8C444.6,192.4,451.5,187.5,454.7,178.4L454.7,178.4z M552.5,110.2
			c12.6,0,20.8,7.4,24.6,18c7.4-10.8,16.4-18,28.9-18c17.4,0,27.3,13.8,27.3,34.5v64.5c0,1.6-1.4,2.7-3.2,2.7h-20.7
			c-1.8,0-3.2-1.1-3.2-2.7v-59.9c0-9-4-14.4-11-14.4c-7.4,0-12.8,6.1-15.5,15.5v58.8c0.1,1.4-0.9,2.6-2.3,2.7c-0.1,0-0.1,0-0.2,0
			H555c-1.6,0-2.3-1.1-2.3-2.7v-59.9c0-9-4-14.4-11-14.4c-7.5,0-12.9,6.5-15.5,15.6v58.6c0.1,1.4-0.8,2.6-2.2,2.7
			c-0.2,0-0.3,0-0.5,0h-21.9c-1.4,0.1-2.6-0.8-2.7-2.2c0-0.2,0-0.3,0-0.5v-94.4c0-1.4,1.1-2.5,2.5-2.5c0.1,0,0.1,0,0.2,0h21
			c1.4-0.1,2.6,0.9,2.7,2.3c0,0.1,0,0.2,0,0.2V126C531.3,118,539.9,110.2,552.5,110.2L552.5,110.2z M746.5,112.4
			c0.5,2.3-0.2,4.1-2.3,4.7l-19.1,5.6c-2.3,0.7-3.6-0.2-4.3-2.3c-2.7-9-7.4-16.2-20.7-16.2c-16.4,0-21.6,10.8-21.6,25.3v33.4
			c0,14.6,5.9,25.3,21.6,25.3c14,0,19.4-7.9,21.6-17.8c0.5-2.2,2-3.2,4.3-2.3l19,6.1c2.2,0.7,2.9,2.3,2.3,4.7
			c-4.5,19.4-18.5,35.2-47.6,35.2c-32.7,0-49.3-21.2-49.3-50.3v-35.2c0-29.1,16.9-50.3,49.3-50.3C728.2,78.2,741.5,93.3,746.5,112.4
			z M842.2,144.4v64.9c0.1,1.4-1,2.6-2.4,2.7c-0.1,0-0.2,0-0.3,0h-19.8c-1.4,0.2-2.7-0.9-2.9-2.3c0-0.1,0-0.3,0-0.4v-10.6
			c-5.7,9.6-16.1,15.5-27.3,15.3c-18.7,0-30.7-12.1-30.7-30.6c0-18,11.3-28.8,39-30.7c6-0.5,12-0.6,18-0.2v-7.2
			c0-9.7-5-13.5-13.7-13.5c-8.8,0-11.3,3.6-13.7,9.2c-0.9,2.1-1.6,2.5-3.6,2l-19.8-5c-2-0.5-2.2-1.6-1.8-3.1
			c2.7-14.2,16.2-24.6,39.9-24.6C828.2,110.2,842.2,122.1,842.2,144.4z M815.8,178.4V169c-5.3-0.2-10.6,0-15.8,0.5
			c-10.1,1.3-15.5,4.3-15.5,12c0,7,4.7,10.8,12.4,10.8C805.7,192.4,812.6,187.5,815.8,178.4L815.8,178.4z M919.2,114.2v19.2
			c0,2.3-0.9,3.2-3.2,3.2h-2.9c-14.4,0-22.8,6.5-25.7,17.3v55.4c0.1,1.4-0.9,2.6-2.2,2.7h-0.1h-22.6c-1.4-0.1-2.4-1.2-2.3-2.6v-0.1
			v-94.4c-0.1-1.3,0.9-2.5,2.3-2.5c0.1,0,0.3,0,0.4,0h20.5c2.2,0,2.7,1.4,2.7,2.9v13.3c4.7-8.8,13.5-17.4,28.9-17.4
			C918.5,111.1,919.2,111.7,919.2,114.2L919.2,114.2z M954.5,170.5v3.8c0,10.4,5.4,17.8,18.2,17.8c12.4,0,15.8-4.7,19-10.6
			c1.6-2.7,2.3-3,5.2-1.8l14.2,7.2c2.9,1.4,3,2.9,1.8,5.6c-6.1,13.8-21.4,21.8-40.4,21.8c-28.8,0-43.9-17.1-43.9-40.4v-23
			c0-22.6,14.2-40.4,43.7-40.4c28,0,41.7,17.8,41.7,39.9V166c0,2.7-0.9,4.5-4.7,4.5H954.5z M954.5,149.5v3.4h34.7v-3.4
			c0-9.7-5.4-17.3-17.3-17.3S954.5,139.7,954.5,149.5L954.5,149.5z"/>
		<path d="M124.3,0H3.7C1.6,0,0,1.6,0,3.6v175.5c0,62.6,50.7,113.3,113.3,113.3l0,0h11c62.6,0,113.3-50.8,113.3-113.3v-65.8
			C237.6,50.7,186.9,0,124.3,0L124.3,0z M201.2,181c0,42.7-31.4,74.9-80.1,74.9c-57.8,0-84.8-34.3-84.8-81.3v-56.9
			c0-47,27-81.3,84.8-81.3c46.7,0,67.9,26.7,76.3,53.4c1.2,4.1-0.3,6.4-3.5,7.6l-31.4,9.3c-3.8,1.2-5.8,0-7-3.8
			c-4.9-16-15.4-24.7-34.5-24.7c-29.6,0-39.5,17.4-39.5,40.9v54c0,23.5,9.9,40.9,39.5,40.9c24.4,0,37.1-11.3,37.1-36v-7h-32.5
			c-2.6,0-4.3-1.4-4.3-4.6v-29.9c0-2.9,1.7-4.6,4.3-4.6h70.8c2.9,0,4.6,1.4,4.6,4.4L201.2,181z"/>
	</g>
</g>
</svg>
